<?xml version="1.0" standalone="no"?><!DOCTYPE svg PUBLIC "-//W3C//DTD SVG 1.1//EN" "http://www.w3.org/Graphics/SVG/1.1/DTD/svg11.dtd"><svg xmlns:xlink="http://www.w3.org/1999/xlink" version="1.1" style="font-family:open sans;font-size:12px;" xmlns="http://www.w3.org/2000/svg" width="1040" height="410"><desc>Created with Highcharts 4.1.5</desc><defs><clipPath id="highcharts-64"><rect x="0" y="0" width="805" height="196"></rect></clipPath></defs><rect x="0" y="0" width="1040" height="410" strokeWidth="0" fill="#FFFFFF" class=" highcharts-background"></rect><g class="highcharts-grid" ></g><g class="highcharts-grid" ></g><g class="highcharts-grid" ><path fill="none" d="M 114 332.5 L 919 332.5" stroke="#D8D8D8" stroke-width="1"  opacity="1"></path><path fill="none" d="M 114 267.5 L 919 267.5" stroke="#D8D8D8" stroke-width="1"  opacity="1"></path><path fill="none" d="M 114 201.5 L 919 201.5" stroke="#D8D8D8" stroke-width="1"  opacity="1"></path><path fill="none" d="M 114 136.5 L 919 136.5" stroke="#D8D8D8" stroke-width="1"  opacity="1"></path></g><g class="highcharts-grid" ></g><g class="highcharts-axis" ><path fill="none" d="M 194.5 332 L 194.5 342" stroke="#C0D0E0" stroke-width="1" opacity="1"></path><path fill="none" d="M 274.5 332 L 274.5 342" stroke="#C0D0E0" stroke-width="1" opacity="1"></path><path fill="none" d="M 355.5 332 L 355.5 342" stroke="#C0D0E0" stroke-width="1" opacity="1"></path><path fill="none" d="M 435.5 332 L 435.5 342" stroke="#C0D0E0" stroke-width="1" opacity="1"></path><path fill="none" d="M 516.5 332 L 516.5 342" stroke="#C0D0E0" stroke-width="1" opacity="1"></path><path fill="none" d="M 596.5 332 L 596.5 342" stroke="#C0D0E0" stroke-width="1" opacity="1"></path><path fill="none" d="M 677.5 332 L 677.5 342" stroke="#C0D0E0" stroke-width="1" opacity="1"></path><path fill="none" d="M 757.5 332 L 757.5 342" stroke="#C0D0E0" stroke-width="1" opacity="1"></path><path fill="none" d="M 838.5 332 L 838.5 342" stroke="#C0D0E0" stroke-width="1" opacity="1"></path><path fill="none" d="M 919.5 332 L 919.5 342" stroke="#C0D0E0" stroke-width="1" opacity="1"></path><path fill="none" d="M 113.5 332 L 113.5 342" stroke="#C0D0E0" stroke-width="1" opacity="1"></path><path fill="none" d="M 114 332.5 L 919 332.5" stroke="#C0D0E0" stroke-width="1"  visibility="visible"></path></g><g class="highcharts-axis" ><path fill="none" d="M 194.5 136 L 194.5 126" stroke="#C0D0E0" stroke-width="1" opacity="1"></path><path fill="none" d="M 274.5 136 L 274.5 126" stroke="#C0D0E0" stroke-width="1" opacity="1"></path><path fill="none" d="M 355.5 136 L 355.5 126" stroke="#C0D0E0" stroke-width="1" opacity="1"></path><path fill="none" d="M 435.5 136 L 435.5 126" stroke="#C0D0E0" stroke-width="1" opacity="1"></path><path fill="none" d="M 516.5 136 L 516.5 126" stroke="#C0D0E0" stroke-width="1" opacity="1"></path><path fill="none" d="M 596.5 136 L 596.5 126" stroke="#C0D0E0" stroke-width="1" opacity="1"></path><path fill="none" d="M 677.5 136 L 677.5 126" stroke="#C0D0E0" stroke-width="1" opacity="1"></path><path fill="none" d="M 757.5 136 L 757.5 126" stroke="#C0D0E0" stroke-width="1" opacity="1"></path><path fill="none" d="M 838.5 136 L 838.5 126" stroke="#C0D0E0" stroke-width="1" opacity="1"></path><path fill="none" d="M 919.5 136 L 919.5 126" stroke="#C0D0E0" stroke-width="1" opacity="1"></path><path fill="none" d="M 113.5 136 L 113.5 126" stroke="#C0D0E0" stroke-width="1" opacity="1"></path><path fill="none" d="M 114 135.5 L 919 135.5" stroke="#C0D0E0" stroke-width="1"  visibility="visible"></path></g><g class="highcharts-axis" ><text x="1013"  text-anchor="middle" transform="translate(0,0) rotate(90 1013 234)" class=" highcharts-yaxis-title" style="color:#000000;fill:#000000;" visibility="visible" y="234"><tspan>Computer science doctorates</tspan></text></g><g class="highcharts-axis" ><text x="26.890625"  text-anchor="middle" transform="translate(0,0) rotate(270 26.890625 234)" class=" highcharts-yaxis-title" style="color:#ba0f27;fill:#ba0f27;" visibility="visible" y="234"><tspan>Arcade revenue</tspan></text></g><g class="highcharts-series-group" ><g class="highcharts-series" visibility="visible"  transform="translate(114,136) scale(1 1)" clip-path="url(#highcharts-64)"><path fill="none" d="M 40.25 148.82933333333335 C 40.25 148.82933333333335 88.55 151.52106666666666 120.75 152.88 C 152.95 154.2389333333333 169.05 155.624 201.25 155.624 C 233.45 155.624 249.55 151.67786666666666 281.75 148.04533333333333 C 313.95 144.4128 330.05 144.3082666666667 362.25 137.46133333333336 C 394.45 130.61440000000002 410.55 127.00800000000001 442.75 113.81066666666668 C 474.95 100.61333333333334 491.05 85.24693333333333 523.25 71.47466666666668 C 555.45 57.702400000000004 571.55 53.67786666666669 603.75 44.94933333333336 C 635.95 36.220800000000025 652.05 27.832000000000022 684.25 27.832000000000022 C 716.45 27.832000000000022 764.75 50.82933333333335 764.75 50.82933333333335" stroke="#000000" stroke-width="2"  stroke-linejoin="round" stroke-linecap="round"></path></g><g class="highcharts-markers" visibility="visible"  transform="translate(114,136) scale(1 1)" clip-path="none"><path fill="#000000" d="M 764 46.82933333333335 C 769.328 46.82933333333335 769.328 54.82933333333335 764 54.82933333333335 C 758.672 54.82933333333335 758.672 46.82933333333335 764 46.82933333333335 Z"></path><path fill="#000000" d="M 684 23.832000000000022 C 689.328 23.832000000000022 689.328 31.832000000000022 684 31.832000000000022 C 678.672 31.832000000000022 678.672 23.832000000000022 684 23.832000000000022 Z"></path><path fill="#000000" d="M 603 40.94933333333336 C 608.328 40.94933333333336 608.328 48.94933333333336 603 48.94933333333336 C 597.672 48.94933333333336 597.672 40.94933333333336 603 40.94933333333336 Z"></path><path fill="#000000" d="M 523 67.47466666666668 C 528.328 67.47466666666668 528.328 75.47466666666668 523 75.47466666666668 C 517.672 75.47466666666668 517.672 67.47466666666668 523 67.47466666666668 Z"></path><path fill="#000000" d="M 442 109.81066666666668 C 447.328 109.81066666666668 447.328 117.81066666666668 442 117.81066666666668 C 436.672 117.81066666666668 436.672 109.81066666666668 442 109.81066666666668 Z"></path><path fill="#000000" d="M 362 133.46133333333336 C 367.328 133.46133333333336 367.328 141.46133333333336 362 141.46133333333336 C 356.672 141.46133333333336 356.672 133.46133333333336 362 133.46133333333336 Z"></path><path fill="#000000" d="M 281 144.04533333333333 C 286.328 144.04533333333333 286.328 152.04533333333333 281 152.04533333333333 C 275.672 152.04533333333333 275.672 144.04533333333333 281 144.04533333333333 Z"></path><path fill="#000000" d="M 201 151.624 C 206.328 151.624 206.328 159.624 201 159.624 C 195.672 159.624 195.672 151.624 201 151.624 Z"></path><path fill="#000000" d="M 120 148.88 C 125.328 148.88 125.328 156.88 120 156.88 C 114.672 156.88 114.672 148.88 120 148.88 Z"></path><path fill="#000000" d="M 40 144.82933333333335 C 45.328 144.82933333333335 45.328 152.82933333333335 40 152.82933333333335 C 34.672 152.82933333333335 34.672 144.82933333333335 40 144.82933333333335 Z"></path></g><g class="highcharts-series" visibility="visible"  transform="translate(114,136) scale(1 1)" clip-path="url(#highcharts-64)"><path fill="none" d="M 40.25 157.584 C 40.25 157.584 88.55 161.50400000000002 120.75 161.50400000000002 C 152.95 161.50400000000002 169.05 143.276 201.25 143.276 C 233.45 143.276 249.55 148.96 281.75 148.96 C 313.95 148.96 330.05 143.47199999999998 362.25 135.828 C 394.45 128.184 410.55 122.2648 442.75 110.74 C 474.95 99.2152 491.05 86.7888 523.25 78.20400000000001 C 555.45 69.6192 571.55 75.73440000000002 603.75 67.81600000000003 C 635.95 59.89760000000003 652.05 38.61200000000002 684.25 38.61200000000002 C 716.45 38.61200000000002 764.75 52.135999999999996 764.75 52.135999999999996" stroke="#ba0f27" stroke-width="2"  stroke-linejoin="round" stroke-linecap="round"></path></g><g class="highcharts-markers" visibility="visible"  transform="translate(114,136) scale(1 1)" clip-path="none"><path fill="#ba0f27" d="M 764 48.135999999999996 L 768 52.135999999999996 764 56.135999999999996 760 52.135999999999996 Z"></path><path fill="#ba0f27" d="M 684 34.61200000000002 L 688 38.61200000000002 684 42.61200000000002 680 38.61200000000002 Z"></path><path fill="#ba0f27" d="M 603 63.81600000000003 L 607 67.81600000000003 603 71.81600000000003 599 67.81600000000003 Z"></path><path fill="#ba0f27" d="M 523 74.20400000000001 L 527 78.20400000000001 523 82.20400000000001 519 78.20400000000001 Z"></path><path fill="#ba0f27" d="M 442 106.74 L 446 110.74 442 114.74 438 110.74 Z"></path><path fill="#ba0f27" d="M 362 131.828 L 366 135.828 362 139.828 358 135.828 Z"></path><path fill="#ba0f27" d="M 281 144.96 L 285 148.96 281 152.96 277 148.96 Z"></path><path fill="#ba0f27" d="M 201 139.276 L 205 143.276 201 147.276 197 143.276 Z"></path><path fill="#ba0f27" d="M 120 157.50400000000002 L 124 161.50400000000002 120 165.50400000000002 116 161.50400000000002 Z"></path><path fill="#ba0f27" d="M 40 153.584 L 44 157.584 40 161.584 36 157.584 Z"></path></g></g><text x="520" text-anchor="middle" class="highcharts-title"  style="color:#777;font-size:18px;fill:#777;width:976px;" y="24"><tspan style="fill:#ba0f27;font-size:24px;font-weight:bold;font-family: 'lora'">Total revenue generated by arcades</tspan><tspan style="font-family: 'lora'" x="520" dy="21"> correlates with </tspan><tspan style="fill:#000000;font-size:24px;font-weight:bold;font-family: 'lora'" x="520" dy="29">Computer science doctorates awarded in the US</tspan></text><g class="highcharts-legend"  transform="translate(351,367)"><g ><g><g class="highcharts-legend-item"  transform="translate(8,3)"><path fill="none" d="M 0 11 L 16 11" stroke="#000000" stroke-width="2"></path><path fill="#000000" d="M 8 7 C 13.328 7 13.328 15 8 15 C 2.6719999999999997 15 2.6719999999999997 7 8 7 Z"></path><text x="21" style="color:#333333;font-size:12px;font-weight:bold;cursor:pointer;fill:#333333;" text-anchor="start"  y="15"><tspan>Computer science doctorates</tspan></text></g><g class="highcharts-legend-item"  transform="translate(218.728515625,3)"><path fill="none" d="M 0 11 L 16 11" stroke="#ba0f27" stroke-width="2"></path><path fill="#ba0f27" d="M 8 7 L 12 11 8 15 4 11 Z"></path><text x="21" y="15" style="color:#333333;font-size:12px;font-weight:bold;cursor:pointer;fill:#333333;" text-anchor="start" ><tspan>Arcade revenue</tspan></text></g></g></g></g><g class="highcharts-axis-labels highcharts-xaxis-labels" ><text x="154.25" style="color:#000000;cursor:default;font-size:11px;fill:#000000;width:71px;text-overflow:clip;" text-anchor="middle" transform="translate(0,0)" y="351" opacity="1">2000</text><text x="234.75" style="color:#000000;cursor:default;font-size:11px;fill:#000000;width:71px;text-overflow:clip;" text-anchor="middle" transform="translate(0,0)" y="351" opacity="1">2001</text><text x="315.25" style="color:#000000;cursor:default;font-size:11px;fill:#000000;width:71px;text-overflow:clip;" text-anchor="middle" transform="translate(0,0)" y="351" opacity="1">2002</text><text x="395.75" style="color:#000000;cursor:default;font-size:11px;fill:#000000;width:71px;text-overflow:clip;" text-anchor="middle" transform="translate(0,0)" y="351" opacity="1">2003</text><text x="476.25" style="color:#000000;cursor:default;font-size:11px;fill:#000000;width:71px;text-overflow:clip;" text-anchor="middle" transform="translate(0,0)" y="351" opacity="1">2004</text><text x="556.75" style="color:#000000;cursor:default;font-size:11px;fill:#000000;width:71px;text-overflow:clip;" text-anchor="middle" transform="translate(0,0)" y="351" opacity="1">2005</text><text x="637.25" style="color:#000000;cursor:default;font-size:11px;fill:#000000;width:71px;text-overflow:clip;" text-anchor="middle" transform="translate(0,0)" y="351" opacity="1">2006</text><text x="717.75" style="color:#000000;cursor:default;font-size:11px;fill:#000000;width:71px;text-overflow:clip;" text-anchor="middle" transform="translate(0,0)" y="351" opacity="1">2007</text><text x="798.25" style="color:#000000;cursor:default;font-size:11px;fill:#000000;width:71px;text-overflow:clip;" text-anchor="middle" transform="translate(0,0)" y="351" opacity="1">2008</text><text x="878.75" style="color:#000000;cursor:default;font-size:11px;fill:#000000;width:71px;text-overflow:clip;" text-anchor="middle" transform="translate(0,0)" y="351" opacity="1">2009</text></g><g class="highcharts-axis-labels highcharts-xaxis-labels" ><text x="154.25" style="color:#ba0f27;cursor:default;font-size:11px;fill:#ba0f27;width:71px;text-overflow:clip;" text-anchor="middle" transform="translate(0,0)" y="121" opacity="1">2000</text><text x="234.75" style="color:#ba0f27;cursor:default;font-size:11px;fill:#ba0f27;width:71px;text-overflow:clip;" text-anchor="middle" transform="translate(0,0)" y="121" opacity="1">2001</text><text x="315.25" style="color:#ba0f27;cursor:default;font-size:11px;fill:#ba0f27;width:71px;text-overflow:clip;" text-anchor="middle" transform="translate(0,0)" y="121" opacity="1">2002</text><text x="395.75" style="color:#ba0f27;cursor:default;font-size:11px;fill:#ba0f27;width:71px;text-overflow:clip;" text-anchor="middle" transform="translate(0,0)" y="121" opacity="1">2003</text><text x="476.25" style="color:#ba0f27;cursor:default;font-size:11px;fill:#ba0f27;width:71px;text-overflow:clip;" text-anchor="middle" transform="translate(0,0)" y="121" opacity="1">2004</text><text x="556.75" style="color:#ba0f27;cursor:default;font-size:11px;fill:#ba0f27;width:71px;text-overflow:clip;" text-anchor="middle" transform="translate(0,0)" y="121" opacity="1">2005</text><text x="637.25" style="color:#ba0f27;cursor:default;font-size:11px;fill:#ba0f27;width:71px;text-overflow:clip;" text-anchor="middle" transform="translate(0,0)" y="121" opacity="1">2006</text><text x="717.75" style="color:#ba0f27;cursor:default;font-size:11px;fill:#ba0f27;width:71px;text-overflow:clip;" text-anchor="middle" transform="translate(0,0)" y="121" opacity="1">2007</text><text x="798.25" style="color:#ba0f27;cursor:default;font-size:11px;fill:#ba0f27;width:71px;text-overflow:clip;" text-anchor="middle" transform="translate(0,0)" y="121" opacity="1">2008</text><text x="878.75" style="color:#ba0f27;cursor:default;font-size:11px;fill:#ba0f27;width:71px;text-overflow:clip;" text-anchor="middle" transform="translate(0,0)" y="121" opacity="1">2009</text></g><g class="highcharts-axis-labels highcharts-yaxis-labels" ><text x="934" style="color:#000000;cursor:default;font-size:11px;fill:#000000;width:333px;text-overflow:clip;" text-anchor="start" transform="translate(0,0)" y="336" opacity="1"><tspan>500 degrees</tspan></text><text x="934" style="color:#000000;cursor:default;font-size:11px;fill:#000000;width:333px;text-overflow:clip;" text-anchor="start" transform="translate(0,0)" y="270" opacity="1"><tspan>1000 degrees</tspan></text><text x="934" style="color:#000000;cursor:default;font-size:11px;fill:#000000;width:333px;text-overflow:clip;" text-anchor="start" transform="translate(0,0)" y="205" opacity="1"><tspan>1500 degrees</tspan></text><text x="934" style="color:#000000;cursor:default;font-size:11px;fill:#000000;width:333px;text-overflow:clip;" text-anchor="start" transform="translate(0,0)" y="140" opacity="1"><tspan>2000 degrees</tspan></text></g><g class="highcharts-axis-labels highcharts-yaxis-labels" ><text x="99" style="color:#ba0f27;cursor:default;font-size:11px;fill:#ba0f27;width:333px;text-overflow:clip;" text-anchor="end" transform="translate(0,0)" y="336" opacity="1"><tspan>$1 billion</tspan></text><text x="99" style="color:#ba0f27;cursor:default;font-size:11px;fill:#ba0f27;width:333px;text-overflow:clip;" text-anchor="end" transform="translate(0,0)" y="287" opacity="1"><tspan>$1.25 billion</tspan></text><text x="99" style="color:#ba0f27;cursor:default;font-size:11px;fill:#ba0f27;width:333px;text-overflow:clip;" text-anchor="end" transform="translate(0,0)" y="238" opacity="1"><tspan>$1.5 billion</tspan></text><text x="99" style="color:#ba0f27;cursor:default;font-size:11px;fill:#ba0f27;width:333px;text-overflow:clip;" text-anchor="end" transform="translate(0,0)" y="189" opacity="1"><tspan>$1.75 billion</tspan></text><text x="99" style="color:#ba0f27;cursor:default;font-size:11px;fill:#ba0f27;width:333px;text-overflow:clip;" text-anchor="end" transform="translate(0,0)" y="140" opacity="1"><tspan>$2 billion</tspan></text></g><g class="highcharts-tooltip"  style="cursor:default;padding:0;white-space:nowrap;" transform="translate(0,-9999)"><path fill="none" d="M 3 0 L 13 0 C 16 0 16 0 16 3 L 16 13 C 16 16 16 16 13 16 L 3 16 C 0 16 0 16 0 13 L 0 3 C 0 0 0 0 3 0"  stroke="black" stroke-opacity="0.049999999999999996" stroke-width="5" transform="translate(1, 1)"></path><path fill="none" d="M 3 0 L 13 0 C 16 0 16 0 16 3 L 16 13 C 16 16 16 16 13 16 L 3 16 C 0 16 0 16 0 13 L 0 3 C 0 0 0 0 3 0"  stroke="black" stroke-opacity="0.09999999999999999" stroke-width="3" transform="translate(1, 1)"></path><path fill="none" d="M 3 0 L 13 0 C 16 0 16 0 16 3 L 16 13 C 16 16 16 16 13 16 L 3 16 C 0 16 0 16 0 13 L 0 3 C 0 0 0 0 3 0"  stroke="black" stroke-opacity="0.15" stroke-width="1" transform="translate(1, 1)"></path><path fill="rgb(249, 249, 249)" fill-opacity=" .85" d="M 3 0 L 13 0 C 16 0 16 0 16 3 L 16 13 C 16 16 16 16 13 16 L 3 16 C 0 16 0 16 0 13 L 0 3 C 0 0 0 0 3 0"></path><text x="8"  style="font-size:12px;color:#333333;fill:#333333;" transform="translate(0,20)"></text></g><text x="1030" text-anchor="end"  style="cursor:pointer;color:#909090;font-size:9px;fill:#909090;" y="405">tylervigen.com</text></svg>